# xmcd
#
# Track frame offsets: 
#        150
#        33312
#        58137
#        69312
#
# Disc length: 1155 seconds
#
# Revision: 0
# Processed by: cddbd v1.5.2PL0 Copyright (c) Steve Scherf et al.
# Submitted via: ExactAudioCopy v1.0b1
#
DISCID=30048104
DTITLE=haydon - さよなら！silver star
DYEAR=2003
DGENRE=Folk
TTITLE0=さよなら！silver star
TTITLE1=スープの匂い
TTITLE2=８月の夜明け
TTITLE3=tinkle～さよなら！silver star 513 ver.
EXTD=
EXTT0=
EXTT1=
EXTT2=
EXTT3=
PLAYORDER=
